{
    "asset" : {
        "generator" : "Khronos glTF Blender I/O v1.8.19",
        "version" : "2.0"
    },
    "scene" : 0,
    "scenes" : [
        {
            "name" : "Scene",
            "nodes" : [
                0
            ]
        }
    ],
    "nodes" : [
        {
            "mesh" : 0,
            "name" : "\u7acb\u4ea4\u6865"
        }
    ],
    "materials" : [
        {
            "doubleSided" : true,
            "name" : "Mat3d66-1383094-30-2147",
            "pbrMetallicRoughness" : {
                "baseColorFactor" : [
                    1,
                    0,
                    0,
                    1
                ],
                "metallicFactor" : 0,
                "roughnessFactor" : 0.5
            }
        },
        {
            "doubleSided" : true,
            "name" : "Mat3d66-1383094-31-2798",
            "pbrMetallicRoughness" : {
                "metallicFactor" : 0,
                "roughnessFactor" : 0.5
            }
        },
        {
            "doubleSided" : true,
            "name" : "Mat3d66-1383094-30-2147.001",
            "pbrMetallicRoughness" : {
                "baseColorFactor" : [
                    1,
                    0,
                    0,
                    1
                ],
                "metallicFactor" : 0,
                "roughnessFactor" : 0.5
            }
        },
        {
            "doubleSided" : true,
            "name" : "Mat3d66-1383094-31-2798.001",
            "pbrMetallicRoughness" : {
                "metallicFactor" : 0,
                "roughnessFactor" : 0.5
            }
        }
    ],
    "meshes" : [
        {
            "name" : "Obj3d66-1383094-6783-136",
            "primitives" : [
                {
                    "attributes" : {
                        "POSITION" : 0,
                        "NORMAL" : 1,
                        "TEXCOORD_0" : 2,
                        "TEXCOORD_1" : 3
                    },
                    "indices" : 4,
                    "material" : 0
                },
                {
                    "attributes" : {
                        "POSITION" : 5,
                        "NORMAL" : 6,
                        "TEXCOORD_0" : 7,
                        "TEXCOORD_1" : 8
                    },
                    "indices" : 9,
                    "material" : 1
                },
                {
                    "attributes" : {
                        "POSITION" : 10,
                        "NORMAL" : 11,
                        "TEXCOORD_0" : 12,
                        "TEXCOORD_1" : 13
                    },
                    "indices" : 14,
                    "material" : 2
                },
                {
                    "attributes" : {
                        "POSITION" : 15,
                        "NORMAL" : 16,
                        "TEXCOORD_0" : 17,
                        "TEXCOORD_1" : 18
                    },
                    "indices" : 19,
                    "material" : 3
                }
            ]
        }
    ],
    "accessors" : [
        {
            "bufferView" : 0,
            "componentType" : 5126,
            "count" : 9136,
            "max" : [
                6.143039703369141,
                4.315878391265869,
                26.31477165222168
            ],
            "min" : [
                -6.119651794433594,
                0.012403011322021484,
                -26.31355857849121
            ],
            "type" : "VEC3"
        },
        {
            "bufferView" : 1,
            "componentType" : 5126,
            "count" : 9136,
            "type" : "VEC3"
        },
        {
            "bufferView" : 2,
            "componentType" : 5126,
            "count" : 9136,
            "type" : "VEC2"
        },
        {
            "bufferView" : 3,
            "componentType" : 5126,
            "count" : 9136,
            "type" : "VEC2"
        },
        {
            "bufferView" : 4,
            "componentType" : 5123,
            "count" : 24075,
            "type" : "SCALAR"
        },
        {
            "bufferView" : 5,
            "componentType" : 5126,
            "count" : 36040,
            "max" : [
                6.1235809326171875,
                4.2662529945373535,
                26.32932472229004
            ],
            "min" : [
                -6.09449577331543,
                0,
                -26.32932472229004
            ],
            "type" : "VEC3"
        },
        {
            "bufferView" : 6,
            "componentType" : 5126,
            "count" : 36040,
            "type" : "VEC3"
        },
        {
            "bufferView" : 7,
            "componentType" : 5126,
            "count" : 36040,
            "type" : "VEC2"
        },
        {
            "bufferView" : 8,
            "componentType" : 5126,
            "count" : 36040,
            "type" : "VEC2"
        },
        {
            "bufferView" : 9,
            "componentType" : 5123,
            "count" : 52776,
            "type" : "SCALAR"
        },
        {
            "bufferView" : 10,
            "componentType" : 5126,
            "count" : 2030,
            "max" : [
                3.924762725830078,
                2.1709132194519043,
                26.321008682250977
            ],
            "min" : [
                -6.070552825927734,
                0.1746807098388672,
                -26.31166648864746
            ],
            "type" : "VEC3"
        },
        {
            "bufferView" : 11,
            "componentType" : 5126,
            "count" : 2030,
            "type" : "VEC3"
        },
        {
            "bufferView" : 12,
            "componentType" : 5126,
            "count" : 2030,
            "type" : "VEC2"
        },
        {
            "bufferView" : 13,
            "componentType" : 5126,
            "count" : 2030,
            "type" : "VEC2"
        },
        {
            "bufferView" : 14,
            "componentType" : 5123,
            "count" : 4728,
            "type" : "SCALAR"
        },
        {
            "bufferView" : 15,
            "componentType" : 5126,
            "count" : 2855,
            "max" : [
                3.9972496032714844,
                2.1710476875305176,
                26.321008682250977
            ],
            "min" : [
                -6.143037796020508,
                0.1746807098388672,
                -26.319398880004883
            ],
            "type" : "VEC3"
        },
        {
            "bufferView" : 16,
            "componentType" : 5126,
            "count" : 2855,
            "type" : "VEC3"
        },
        {
            "bufferView" : 17,
            "componentType" : 5126,
            "count" : 2855,
            "type" : "VEC2"
        },
        {
            "bufferView" : 18,
            "componentType" : 5126,
            "count" : 2855,
            "type" : "VEC2"
        },
        {
            "bufferView" : 19,
            "componentType" : 5123,
            "count" : 7068,
            "type" : "SCALAR"
        }
    ],
    "bufferViews" : [
        {
            "buffer" : 0,
            "byteLength" : 109632,
            "byteOffset" : 0
        },
        {
            "buffer" : 0,
            "byteLength" : 109632,
            "byteOffset" : 109632
        },
        {
            "buffer" : 0,
            "byteLength" : 73088,
            "byteOffset" : 219264
        },
        {
            "buffer" : 0,
            "byteLength" : 73088,
            "byteOffset" : 292352
        },
        {
            "buffer" : 0,
            "byteLength" : 48150,
            "byteOffset" : 365440
        },
        {
            "buffer" : 0,
            "byteLength" : 432480,
            "byteOffset" : 413592
        },
        {
            "buffer" : 0,
            "byteLength" : 432480,
            "byteOffset" : 846072
        },
        {
            "buffer" : 0,
            "byteLength" : 288320,
            "byteOffset" : 1278552
        },
        {
            "buffer" : 0,
            "byteLength" : 288320,
            "byteOffset" : 1566872
        },
        {
            "buffer" : 0,
            "byteLength" : 105552,
            "byteOffset" : 1855192
        },
        {
            "buffer" : 0,
            "byteLength" : 24360,
            "byteOffset" : 1960744
        },
        {
            "buffer" : 0,
            "byteLength" : 24360,
            "byteOffset" : 1985104
        },
        {
            "buffer" : 0,
            "byteLength" : 16240,
            "byteOffset" : 2009464
        },
        {
            "buffer" : 0,
            "byteLength" : 16240,
            "byteOffset" : 2025704
        },
        {
            "buffer" : 0,
            "byteLength" : 9456,
            "byteOffset" : 2041944
        },
        {
            "buffer" : 0,
            "byteLength" : 34260,
            "byteOffset" : 2051400
        },
        {
            "buffer" : 0,
            "byteLength" : 34260,
            "byteOffset" : 2085660
        },
        {
            "buffer" : 0,
            "byteLength" : 22840,
            "byteOffset" : 2119920
        },
        {
            "buffer" : 0,
            "byteLength" : 22840,
            "byteOffset" : 2142760
        },
        {
            "buffer" : 0,
            "byteLength" : 14136,
            "byteOffset" : 2165600
        }
    ],
    "buffers" : [
        {
            "byteLength" : 2179736,
            "uri" : "data:application/octet-stream;base64,"
        }
    ]
}
